<?xml version="1.0" encoding="utf-8"?>
<!-- Generator: Adobe Illustrator 16.0.0, SVG Export Plug-In . SVG Version: 6.00 Build 0)  -->
<!DOCTYPE svg PUBLIC "-//W3C//DTD SVG 1.1//EN" "http://www.w3.org/Graphics/SVG/1.1/DTD/svg11.dtd">
<svg version="1.1" id="Calque_1" xmlns="http://www.w3.org/2000/svg" xmlns:xlink="http://www.w3.org/1999/xlink" x="0px" y="0px"
	 width="256px" height="256px" viewBox="0 0 256 256" enable-background="new 0 0 256 256" xml:space="preserve">
<path fill="#930303" d="M128,0C57.421,0,0,57.421,0,128c0,70.574,57.421,128,128,128c70.574,0,128-57.426,128-128
	C256,57.421,198.584,0,128,0z"/>
<path fill="#fff" d="M159.832,132.506h-20.824c0,33.271,0,74.225,0,74.225H108.15c0,0,0-40.557,0-74.225H93.481v-26.232
	h14.668V89.305c0-12.152,5.775-31.142,31.141-31.142l22.867,0.088v25.465c0,0-13.896,0-16.598,0s-6.543,1.351-6.543,7.146v15.416
	h23.512L159.832,132.506L159.832,132.506L159.832,132.506z"/>
</svg>
