<?xml version="1.0" encoding="utf-8"?>
<!-- Generator: Adobe Illustrator 18.1.1, SVG Export Plug-In . SVG Version: 6.00 Build 0)  -->
<svg version="1.1" id="Calque_1" xmlns="http://www.w3.org/2000/svg" xmlns:xlink="http://www.w3.org/1999/xlink" x="0px" y="0px"
	 viewBox="0 0 841.9 595.3" enable-background="new 0 0 841.9 595.3" xml:space="preserve">
<g id="Calque_2" display="none">
</g>
<polygon fill="#D21216" points="218,185.7 306,185.7 236.7,196.3 262,260.3 "/>
<polygon fill="#8B1812" points="306,185.7 262,260.3 236.7,196.3 "/>
<polygon fill="#D21216" points="444,270.2 546,270.2 465.6,282.6 495,356.8 "/>
<polygon fill="#8B1812" points="546,270.2 495,356.8 465.6,282.6 "/>
<polygon fill="#D21216" points="468.6,368.1 423.9,443.3 450,378.6 382.4,367.8 "/>
<polygon fill="#8B1812" points="423.9,443.3 382.4,367.8 450,378.6 "/>
<polygon fill="#D21216" points="286.5,318.3 332.5,394 287.1,339.9 245.2,395.1 "/>
<polygon fill="#8B1812" points="332.5,394 245.2,395.1 287.1,339.9 "/>
<polygon fill="#D21216" points="109.7,318.3 141.7,318.3 116.5,322.1 125.7,345.5 "/>
<polygon fill="#8B1812" points="141.7,318.3 125.7,345.5 116.5,322.1 "/>
<polygon fill="#D21216" points="180.1,245.3 142.5,245.3 172.1,249.9 161.3,277.2 "/>
<polygon fill="#8B1812" points="142.5,245.3 161.3,277.2 172.1,249.9 "/>
<polygon fill="#B11D3D" points="271.3,270.2 416.2,270.2 360,318.3 "/>
<polygon fill="#BF1E19" points="271.3,270.2 343.8,395.1 360,318.3 "/>
<polygon fill="#A01919" points="416.2,270.2 360,318.3 343.8,395.1 "/>
<polygon fill="#BB1D44" points="343.8,260.3 408.7,147 421.3,212.3 "/>
<polygon fill="#E73941" points="421.3,212.3 476,261.3 343.8,260.3 "/>
<polygon fill="#CC1F1F" points="408.7,147 421.3,212.3 476,261.3 "/>
<polygon fill="#A71738" points="450,199.7 517.3,199.7 492,223 "/>
<polygon fill="#BB1D1F" points="450,199.7 483.7,260.3 492,223 "/>
<polygon fill="#541016" points="517.3,199.7 483.7,260.3 492,223 "/>
<polygon fill="#DF2417" points="542.7,178.3 495,260.3 530.7,230 "/>
<polygon fill="#B21917" points="542.7,178.3 588.7,260.3 530.7,230 "/>
<polygon fill="#4F1112" points="495,260.3 588.7,260.3 530.7,230 "/>
<polygon fill="#C83552" points="380,356.8 429.3,270.2 429.3,331.9 "/>
<polygon fill="#E73536" points="429.3,270.2 480,356.8 429.3,331.9 "/>
<polygon fill="#AD1917" points="380,356.8 480,356.8 429.3,331.9 "/>
<polygon fill="#C83552" points="447.6,425 480.2,367.8 480.2,408.5 "/>
<polygon fill="#E73536" points="480.2,367.8 513.7,425 480.2,408.5 "/>
<polygon fill="#AD1917" points="447.6,425 513.7,425 480.2,408.5 "/>
<polygon fill="#C83552" points="552.7,270.2 574.7,308.9 574.7,281.4 "/>
<polygon fill="#E73536" points="574.7,308.9 597.3,270.2 574.7,281.4 "/>
<polygon fill="#AD1917" points="552.7,270.2 597.3,270.2 574.7,281.4 "/>
<polygon fill="#B11D3D" points="161.3,318.3 274.4,318.3 230.5,355.8 "/>
<polygon fill="#BF1E19" points="161.3,318.3 217.9,415.8 230.5,355.8 "/>
<polygon fill="#A01919" points="274.4,318.3 230.5,355.8 217.9,415.8 "/>
<polygon fill="#B11D3D" points="179.3,367.8 121.8,367.8 144.1,348.7 "/>
<polygon fill="#BF1E19" points="179.3,367.8 150.5,318.3 144.1,348.7 "/>
<polygon fill="#A01919" points="121.8,367.8 144.1,348.7 150.5,318.3 "/>
<polygon fill="#741327" points="234,227 234,289.6 277.3,305.7 "/>
<polygon fill="#D21626" points="234,227 186,305.7 234,289.6 "/>
<polygon fill="#CD141A" points="234,289.6 186,305.7 277.3,305.7 "/>
<polygon fill="#741327" points="371.7,369.2 371.7,422.6 334.7,436.3 "/>
<polygon fill="#D21626" points="371.7,369.2 412.6,436.3 371.7,422.6 "/>
<polygon fill="#CD141A" points="371.7,422.6 412.6,436.3 334.7,436.3 "/>
<polygon fill="#DF2417" points="303.6,204.2 270.4,261.3 295.3,240.1 "/>
<polygon fill="#B21917" points="303.6,204.2 335.6,261.3 295.3,240.1 "/>
<polygon fill="#4F1112" points="270.4,261.3 335.6,261.3 295.3,240.1 "/>
<polygon fill="#D21216" points="441.2,133 409.2,133 434.4,136.9 425.2,160.2 "/>
<polygon fill="#8B1812" points="409.2,133 425.2,160.2 434.4,136.9 "/>
<polygon fill="#BB1D44" points="465.2,163.2 447.9,133 444.6,150.4 "/>
<polygon fill="#E73941" points="444.6,150.4 430,163.5 465.2,163.2 "/>
<polygon fill="#CC1F1F" points="447.9,133 444.6,150.4 430,163.5 "/>
<polygon fill="#C83552" points="340.5,402.8 301.8,470.7 301.8,422.3 "/>
<polygon fill="#E73536" points="301.8,470.7 262,402.8 301.8,422.3 "/>
<polygon fill="#AD1917" points="340.5,402.8 262,402.8 301.8,422.3 "/>
<polygon fill="#E62137" points="514.1,429.8 492,466.9 504.9,435 471.6,429.6 "/>
<polygon fill="#AF1923" points="492,466.9 471.6,429.6 504.9,435 "/>
<polygon fill="#D21216" points="559.7,177.7 601.6,235.2 647,178.9 601,257.7 "/>
<polygon fill="#8B1812" points="601.6,235.2 559.7,177.7 647,178.9 "/>
<polygon fill="#C83552" points="635.7,248.2 635.7,220.7 613.7,259.4 "/>
<polygon fill="#E73536" points="635.7,248.2 658.3,259.4 635.7,220.7 "/>
<polygon fill="#AD1917" points="635.7,248.2 658.3,259.4 613.7,259.4 "/>
<polygon fill="#741327" points="715.4,179.9 715.4,242.5 758.7,258.6 "/>
<polygon fill="#D21626" points="715.4,179.9 667.4,258.6 715.4,242.5 "/>
<polygon fill="#CD141A" points="715.4,242.5 667.4,258.6 758.7,258.6 "/>
<polygon fill="#E62137" points="775.1,177.9 753,215 765.9,183.1 732.6,177.7 "/>
<polygon fill="#AF1923" points="753,215 732.6,177.7 765.9,183.1 "/>
<polygon fill="#DF2417" points="799.1,201.4 765.9,258.5 790.8,237.3 "/>
<polygon fill="#B21917" points="799.1,201.4 831.1,258.5 790.8,237.3 "/>
<polygon fill="#4F1112" points="765.9,258.5 831.1,258.5 790.8,237.3 "/>
<polygon fill="#BB1D44" points="702.6,175.1 685.3,144.9 682,162.3 "/>
<polygon fill="#E73941" points="682,162.3 667.4,175.4 702.6,175.1 "/>
<polygon fill="#CC1F1F" points="685.3,144.9 682,162.3 667.4,175.4 "/>
</svg>
